/* XPM */
static char * C:\Users\Romil\Desktop\Cool Sprites\32x32\collec3_xpm[] = {
"32 32 7 1",
" 	c #8B9BB4",
".	c #5A6988",
"+	c #C0CBDC",
"@	c #FFEE83",
"#	c #EC8C32",
"$	c #FFCE00",
"%	c #AB5130",
"      ..++              ..++    ",
"      ..++              ..++    ",
"      ....              ..++    ",
"      ....              ..++    ",
"    ................    ....    ",
"    ................    ....    ",
"....++++        ................",
"....++++       @@...............",
"  ..++         @@ ....++        ",
"  ..++       ##$$@@...++        ",
"  ..         ##$$@@.++          ",
"  ..       ##$$$$$$@@+          ",
"    ...... ##$$$$$$@@+          ",
"    ...... ##$$##$$@@+          ",
"    ..++++.##$$##$$@@+          ",
"    ..+++##$$$$##$$$$@@         ",
"    ..++ ##$$$$##$$$$@@         ",
"    ..++   %%$$##$$##           ",
"    ..++   %%$$##$$##.          ",
"    ..++   %%$$$$$$##.          ",
"......++   %%$$$$$$##...........",
"......++     %%$$%% ............",
"  ....       %%$$%% ..++        ",
"  ....         %%   ..++        ",
"    ....       %% ....++        ",
"    ....          ....++        ",
"      ..................++      ",
"      ..................++      ",
"      ....++          ....++    ",
"      ....++          ....++    ",
"      ..++              ..++    ",
"      ..++              ..++    "};
