/* XPM */
static char * C:\Users\Romil\Desktop\Cool Sprites\32x32\playerdown_xpm[] = {
"32 32 7 1",
" 	c #8B9BB4",
".	c #5A6988",
"+	c #C0CBDC",
"@	c #222222",
"#	c #4E6474",
"$	c #6A8A99",
"%	c #84ADA7",
"      ..++              ..++    ",
"      ..++              ..++    ",
"      ...@@@@@@@@@@@@@@ ..++    ",
"      ...@@@@@@@@@@@@@@ ..++    ",
"    ...@@##############@@...    ",
"    ...@@##############@@...    ",
"....+++@@##$$$$$$$$$$%%@@.......",
"....+++@@##$$$$$$$$$$%%@@.......",
"  ..++ @@##$$$$$$$$$$%%@@       ",
"  ..++ @@##$$$$$$$$$$%%@@       ",
"  ..   @@##@@@@@@@@@@$$@@       ",
"  ..   @@##@@@@@@@@@@$$@@       ",
"    ...@@##$$@@@@@@$$%%@@       ",
"    ...@@##$$@@@@@@$$%%@@       ",
"    ..+@@$$$$$$@@$$$$$$@@       ",
"    ..+@@$$$$$$@@$$$$$$@@       ",
"    ..++ @@$$$$@@$$$$@@@@       ",
"    ..++ @@$$$$@@$$$$@@@@       ",
"    ..+@@@@@@@@##@@@@@@$$@@     ",
"    ..+@@@@@@@@##@@@@@@$$@@     ",
".....@@$$@@##$$$$$$%%@@$$@@.....",
".....@@$$@@##$$$$$$%%@@$$@@.....",
"  ...@@$$@@##$$$$$$$$@@@@       ",
"  ...@@$$@@##$$$$$$$$@@@@       ",
"    ...@@@@$$$$######@@+        ",
"    ...@@@@$$$$######@@+        ",
"      ...@@$$@@@@@@##@@.++      ",
"      ...@@$$@@@@@@##@@.++      ",
"      ...@@@@      @@@@...++    ",
"      ...@@@@      @@@@...++    ",
"      ..++              ..++    ",
"      ..++              ..++    "};
