/* XPM */
static char * C:\Users\Romil\Desktop\sprite2\collec2_xpm[] = {
"32 32 3 1",
" 	c #19142B",
".	c #E9BB4B",
"+	c #A4812C",
"                                ",
"                                ",
"                                ",
"                                ",
"                                ",
"                                ",
"                                ",
"                                ",
"            ........            ",
"            ........            ",
"          ....++++++..          ",
"          ....++++++..          ",
"        ....++++....++..        ",
"        ....++++....++..        ",
"        ....++..  ......        ",
"        ....++..  ......        ",
"        ....++..  ......        ",
"        ....++..  ......        ",
"        ....++++....++..        ",
"        ....++++....++..        ",
"          ....++++++..          ",
"          ....++++++..          ",
"            ........            ",
"            ........            ",
"                                ",
"                                ",
"                                ",
"                                ",
"                                ",
"                                ",
"                                ",
"                                "};
