/* XPM */
static char * collec2_xpm[] = {
"32 32 2 1",
" 	c #1A1E21",
".	c #FFFFFF",
"                                ",
"                                ",
"                                ",
"                                ",
"                                ",
"      ....    ....    ....      ",
"      ....    ....    ....      ",
"      ....    ....    ....      ",
"      ....    ....    ....      ",
"          ....    ....          ",
"          ....    ....          ",
"          ....    ....          ",
"          ....    ....          ",
"      ....            ....      ",
"      ....            ....      ",
"      ....            ....      ",
"      ....            ....      ",
"          ....    ....          ",
"          ....    ....          ",
"          ....    ....          ",
"          ....    ....          ",
"      ....    ....    ....      ",
"      ....    ....    ....      ",
"      ....    ....    ....      ",
"      ....    ....    ....      ",
"                                ",
"                                ",
"                                ",
"                                ",
"                                ",
"                                ",
"                                "};
