/* XPM */
static char * C:\Users\Romil\Desktop\SpriteMonochrome\collec0_xpm[] = {
"32 32 2 1",
" 	c #19142B",
".	c #E9BB4B",
"                                ",
"                                ",
"                                ",
"            ........            ",
"            ........            ",
"            ........            ",
"            ........            ",
"        ....        ....        ",
"        ....        ....        ",
"        ....        ....        ",
"        ....        ....        ",
"        ........    ....        ",
"        ........    ....        ",
"        ........    ....        ",
"        ........    ....        ",
"        ................        ",
"        ................        ",
"        ................        ",
"        ................        ",
"        ........    ....        ",
"        ........    ....        ",
"        ........    ....        ",
"        ........    ....        ",
"            ........            ",
"            ........            ",
"            ........            ",
"            ........            ",
"                                ",
"                                ",
"                                ",
"                                ",
"                                "};
