/* XPM */
static char * collec0_xpm[] = {
"32 32 3 1",
" 	c #1A1E21",
".	c #FFFFFF",
"+	c #191D20",
"                                ",
"                                ",
"                                ",
"                                ",
"                                ",
"                                ",
"                                ",
"                                ",
"                                ",
"              ....              ",
"              ....              ",
"              ....              ",
"              ....              ",
"          ............          ",
"          ............          ",
"          ............          ",
"          ............          ",
"              ....              ",
"              ....              ",
"              ....              ",
"              ....              ",
"                                ",
"                                ",
" +                              ",
"                                ",
"                                ",
"                                ",
"                                ",
"                                ",
"                                ",
"                                ",
"                                "};
