/* XPM */
static char * \\wsl_localhost\Ubuntu_20_04\home\romil\So_Long\sprt\enemyright_xpm[] = {
"32 32 11 1",
" 	c #8B9BB4",
".	c #5A6988",
"+	c #C0CBDC",
"@	c #060608",
"#	c #683E2C",
"$	c #7E4C35",
"%	c #3A5124",
"&	c #4B692F",
"*	c #49556F",
"=	c #727F94",
"-	c #9EA7B5",
"      ..++              ..++    ",
"      ..++              ..++    ",
"      ....  @@@@@@@@@@  ..++    ",
"      ....  @@@@@@@@@@  ..++    ",
"    ......@@##$$$$$$##@@....    ",
"    ......@@##$$$$$$##@@....    ",
"....@@@@@@##$$$$$$$$$$##@@@@@@..",
"....@@@@@@##$$$$$$$$$$##@@@@@@..",
"  ..@@%%&&&&$$$$$$$$$$$$&&%%@@  ",
"  ..@@%%&&&&$$$$$$$$$$$$&&%%@@  ",
"  ..  @@%%&&$$%%%%%%%%%%%%@@    ",
"  ..  @@%%&&$$%%%%%%%%%%%%@@    ",
"    ..@@##&&##%%%%%%%%%%@@      ",
"    ..@@##&&##%%%%%%%%%%@@      ",
"    ..@@##%%%%&&@@&&&&@@@@      ",
"    ..@@##%%%%&&@@&&&&@@@@      ",
"    ..@@####%%&&&&&&&&&&@@      ",
"    ..@@####%%&&&&&&&&&&@@      ",
"    ..++@@##%%&&&&&&&&&&@@      ",
"    ..++@@##%%&&&&&&&&&&@@      ",
"......++  @@%%&&&&&&&&&&@@......",
"......++  @@%%&&&&&&&&&&@@......",
"  ....    @@%%%%@@@@@@%%@@      ",
"  ....    @@%%%%@@@@@@%%@@      ",
"    ..**==@@%%@@==@@%%@@====    ",
"    ..**==@@%%@@==@@%%@@====    ",
"    ==****@@@@****@@@@**--====  ",
"    ==****@@@@****@@@@**--====  ",
"    ==****--==========****--==  ",
"    ==****--==========****--==  ",
"      **--==============**--    ",
"      **--==============**--    "};
