/* XPM */
static char * exit1_xpm[] = {
"32 32 2 1",
" 	c #FFFFFF",
".	c #1A1E21",
"        ....        ....        ",
"        ....        ....        ",
"        ....        ....        ",
"        ....        ....        ",
"    ........................    ",
"    ........................    ",
"    ........................    ",
"    ........................    ",
"........                ........",
"........                ........",
"........                ........",
"........                ........",
"    ....                ....    ",
"    ....                ....    ",
"    ....                ....    ",
"    ....                ....    ",
"    ....                ....    ",
"    ....                ....    ",
"    ....                ....    ",
"    ....                ....    ",
"........                ........",
"........                ........",
"........                ........",
"........                ........",
"    ....                ....    ",
"    ....                ....    ",
"    ....                ....    ",
"    ....                ....    ",
"    ....                ....    ",
"    ....                ....    ",
"    ....                ....    ",
"    ....                ....    "};
