/* XPM */
static char * exit2_xpm[] = {
"32 32 2 1",
" 	c #FFFFFF",
".	c #1A1E21",
"        ....        ....        ",
"        ....        ....        ",
"        ....        ....        ",
"        ....        ....        ",
"    ........................    ",
"    ........................    ",
"    ........................    ",
"    ........................    ",
"........                ........",
"........                ........",
"........                ........",
"........                ........",
"    ....    ........    ....    ",
"    ....    ........    ....    ",
"    ....    ........    ....    ",
"    ....    ........    ....    ",
"    ....    ........    ....    ",
"    ....    ........    ....    ",
"    ....    ........    ....    ",
"    ....    ........    ....    ",
"........    ........    ........",
"........    ........    ........",
"........    ........    ........",
"........    ........    ........",
"    ....    ........    ....    ",
"    ....    ........    ....    ",
"    ....    ........    ....    ",
"    ....    ........    ....    ",
"    ....    ........    ....    ",
"    ....    ........    ....    ",
"    ....    ........    ....    ",
"    ....    ........    ....    "};
