/* XPM */
static char * C:\Users\Romil\Desktop\SpriteMonochrome\exit0_xpm[] = {
"32 32 2 1",
" 	c #19142B",
".	c #7991B0",
"                                ",
"                                ",
"        ................        ",
"        ................        ",
"        ................        ",
"        ................        ",
"    ........            ....    ",
"    ........            ....    ",
"    ........            ....    ",
"    ........            ....    ",
"    ....    ................    ",
"    ....    ................    ",
"    ....    ................    ",
"    ....    ................    ",
"    ....    ................    ",
"    ....    ................    ",
"    ....    ................    ",
"    ....    ................    ",
"    ....    ........    ....    ",
"    ....    ........    ....    ",
"    ....    ........    ....    ",
"    ....    ........    ....    ",
"    ....    ................    ",
"    ....    ................    ",
"    ....    ................    ",
"    ....    ................    ",
"    ....    ................    ",
"    ....    ................    ",
"    ....    ................    ",
"    ....    ................    ",
"                                ",
"                                "};
