/* XPM */
static char * C:\Users\Romil\Desktop\Cool Sprites\32x32\exit1_xpm[] = {
"32 32 7 1",
" 	c #8B9BB4",
".	c #5A6988",
"+	c #C0CBDC",
"@	c #3E2731",
"#	c #E4A672",
"$	c #B86F50",
"%	c #733E39",
"      ..++              ..++    ",
"      ..++              ..++    ",
"      ....              ..++    ",
"      ....              ..++    ",
"  @@@@@@@@@@@@@@@@@@@@@@@@@@@@  ",
"  @@@@@@@@@@@@@@@@@@@@@@@@@@@@  ",
"..@@######$$####@@####$$####@@..",
"..@@######$$####@@####$$####@@..",
"  @@++####$$####@@####$$##++@@  ",
"  @@++####$$####@@####$$##++@@  ",
"  @@  ####$$####@@####$$##  @@  ",
"  @@  ####$$####@@####$$##  @@  ",
"  @@######$$####@@####$$####@@  ",
"  @@######$$####@@####$$####@@  ",
"  @@######$$####@@####$$####@@  ",
"  @@######$$####@@####$$####@@  ",
"  @@######$$####@@####$$####@@  ",
"  @@######$$####@@####$$####@@  ",
"  @@######$$####@@####$$####@@  ",
"  @@######$$####@@####$$####@@  ",
"..@@++####$$####@@####$$##++@@..",
"..@@++####$$####@@####$$##++@@..",
"  @@  ####$$####@@####$$##  @@  ",
"  @@  ####$$####@@####$$##  @@  ",
"  @@######$$####@@####$$####@@  ",
"  @@######$$####@@####$$####@@  ",
"  @@$$$$$$%%$$$$@@$$$$%%$$$$@@  ",
"  @@$$$$$$%%$$$$@@$$$$%%$$$$@@  ",
"  @@@@@@@@@@@@@@@@@@@@@@@@@@@@  ",
"  @@@@@@@@@@@@@@@@@@@@@@@@@@@@  ",
"      ..++              ..++    ",
"      ..++              ..++    "};
