/* XPM */
static char * C:\Users\Romil\Desktop\SpriteMonochrome\left0_xpm[] = {
"32 32 2 1",
" 	c #F3E4D2",
".	c #19142B",
"    ..............        ......",
"    ..............        ......",
"    ..........          ........",
"    ..........          ........",
"    ......            ..........",
"    ......            ..........",
"  ........            ..........",
"  ........            ..........",
"  ..                  ..........",
"  ..                  ..........",
"  ......                ........",
"  ......                ........",
"  ..........                ....",
"  ..........                ....",
"  ..............................",
"  ..............................",
"........  ....  ................",
"........  ....  ................",
"    ..  ............      ......",
"    ..  ............      ......",
"    ....  ..            ........",
"    ....  ..            ........",
"........  ..          ..........",
"........  ..          ..........",
"  ......              ..........",
"  ......              ..........",
"  ......                ........",
"  ......                ........",
"  ......                  ......",
"  ......                  ......",
"  ....                      ....",
"  ....                      ...."};
