/* XPM */
static char * C:\Users\Romil\Desktop\SpriteMonochrome\xleft1_xpm[] = {
"32 32 2 1",
" 	c #19142B",
".	c #E9BB4B",
"                                ",
"                                ",
"                                ",
"                                ",
"                                ",
"                                ",
"                                ",
"                                ",
"                                ",
"    ........    ........        ",
"    ........    ........        ",
"    ........    ........        ",
"    ........    ........        ",
"    ....................        ",
"    ....................        ",
"    ....................        ",
"    ....................        ",
"    ....    ........            ",
"    ....    ........            ",
"    ....    ........            ",
"    ....    ........            ",
"........................        ",
"........................        ",
"........................        ",
"........................    ....",
"        ................    ....",
"        ................    ....",
"        ................    ....",
"            ................    ",
"            ................    ",
"            ................    ",
"            ................    "};
