/* XPM */
static char * C:\Users\Romil\Desktop\SpriteMonochrome\pright2_xpm[] = {
"32 32 2 1",
" 	c #19142B",
".	c #D53F30",
"    ................            ",
"    ................            ",
"    ................            ",
"    ................            ",
"    ....................        ",
"    ....................        ",
"    ....................        ",
"    ....................        ",
"    ....    ....    ....    ....",
"    ....    ....    ....    ....",
"    ....    ....    ....    ....",
"    ....    ....    ....    ....",
"    ....            ....        ",
"    ....            ....        ",
"    ....            ....        ",
"    ....            ....        ",
"    ........    ........    ....",
"    ........    ........    ....",
"    ........    ........    ....",
"    ........    ........    ....",
"    ............................",
"    ............................",
"    ............................",
"    ............................",
"    ....................    ....",
"    ....................    ....",
"    ....................    ....",
"    ....................    ....",
"        ............        ....",
"        ............        ....",
"        ............        ....",
"        ............        ...."};
