/* XPM */
static char * C:\Users\Romil\Desktop\SpriteMonochrome\pright1_xpm[] = {
"32 32 2 1",
" 	c #19142B",
".	c #D53F30",
"                                ",
"                                ",
"                                ",
"                                ",
"....................            ",
"....................            ",
"....................            ",
"....................            ",
"    ....................    ....",
"    ....................    ....",
"    ....................    ....",
"    ....................    ....",
"    ....            ....        ",
"    ....            ....        ",
"    ....            ....        ",
"    ....            ....        ",
"    ........    ........    ....",
"    ........    ........    ....",
"    ........    ........    ....",
"    ........    ........    ....",
"    ............................",
"    ............................",
"    ............................",
"    ............................",
"    ....................    ....",
"    ....................    ....",
"    ....................    ....",
"    ....................    ....",
"        ............        ....",
"        ............        ....",
"        ............        ....",
"        ............        ...."};
