/* XPM */
static char * C:\Users\Romil\Desktop\SpriteMonochrome\pright0_xpm[] = {
"32 32 2 1",
" 	c #D53F30",
".	c #19142B",
"                    ............",
"                    ............",
"                    ............",
"                    ............",
"....                    ........",
"....                    ........",
"....                    ........",
"....                    ........",
"....    ....    ....    ....    ",
"....    ....    ....    ....    ",
"....    ....    ....    ....    ",
"....    ....    ....    ....    ",
"....    ............    ........",
"....    ............    ........",
"....    ............    ........",
"....    ............    ........",
"....        ....        ....    ",
"....        ....        ....    ",
"....        ....        ....    ",
"....        ....        ....    ",
"....                            ",
"....                            ",
"....                            ",
"....                            ",
"....                    ....    ",
"....                    ....    ",
"....                    ....    ",
"....                    ....    ",
"........            ........    ",
"........            ........    ",
"........            ........    ",
"........            ........    "};
