/* XPM */
static char * C:\Users\Romil\Desktop\SpriteMonochrome\right2_xpm[] = {
"32 32 2 1",
" 	c #19142B",
".	c #F3E4D2",
"                                ",
"      ........                  ",
"      ........              ....",
"        ..........          ....",
"        ..........          ....",
"          ............      ....",
"          ............      ....",
"          ............      ....",
"          ............        ..",
"          ..................  ..",
"          ..................  ..",
"        ................      ..",
"        ................      ..",
"    ................          ..",
"    ................          ..",
"                              ..",
"                ..    ..      ..",
"                ..    ..      ..",
"      ......            ..      ",
"      ......            ..      ",
"        ............  ..    ....",
"        ............  ..    ....",
"          ..........  ..    ....",
"          ..........  ..    ....",
"          ..............        ",
"          ..............        ",
"        ................      ..",
"        ................      ..",
"      ..................      ..",
"      ..................      ..",
"    ......................    ..",
"    ......................    .."};
