/* XPM */
static char * C:\Users\Romil\Desktop\SpriteMonochrome\wall_downr_xpm[] = {
"32 32 2 1",
" 	c #19142B",
".	c #ADB4BF",
" ....                           ",
".....                           ",
".....                           ",
".....                           ",
".....                           ",
".                               ",
".                               ",
".                               ",
".                               ",
"         ........               ",
"         ........               ",
"         ........               ",
"         ........               ",
"                         ....   ",
"                         ....   ",
"                         ....   ",
"                         ....   ",
"                                ",
"                                ",
"                                ",
"                                ",
"             ........           ",
"             ........           ",
"             ........           ",
"             ........           ",
"                                ",
"                                ",
"                                ",
"                                ",
"                                ",
"                                ",
"                                "};
