/* XPM */
static char * C:\Users\Romil\Desktop\Cool Sprites\32x32\wall_xpm[] = {
"32 32 8 1",
" 	c #8B9BB4",
".	c #5A6988",
"+	c #C0CBDC",
"@	c #262B44",
"#	c #E8B796",
"$	c #EAD4AA",
"%	c #181425",
"&	c #B86F50",
"      ..++  @@@@@@@@@@  ..++    ",
"      ..++  @@@@@@@@@@  ..++    ",
"      ....@@######$$$$@@..++    ",
"      ....@@######$$$$@@..++    ",
"    ....@@##@@%%%%%%@@##@@..    ",
"    ....@@##@@%%%%%%@@##@@..    ",
"....++++@@##%%%%%%%%%%##@@......",
"....++++@@##%%%%%%%%%%##@@......",
"  ..++  @@####@@@@@@##&&@@      ",
"  ..++  @@####@@@@@@##&&@@      ",
"  ..  @@&&&&$$$$########&&@@    ",
"  ..  @@&&&&$$$$########&&@@    ",
"    ..@@################&&@@    ",
"    ..@@################&&@@    ",
"    @@####$$$$$$$$########&&@@  ",
"    @@####$$$$$$$$########&&@@  ",
"    @@##$$$$$$$$$$$$######&&@@  ",
"    @@##$$$$$$$$$$$$######&&@@  ",
"    @@##$$$$$$$$$$$$######&&@@  ",
"    @@##$$$$$$$$$$$$######&&@@  ",
"....@@####$$$$$$$$########&&@@..",
"....@@####$$$$$$$$########&&@@..",
"  ....@@################&&@@    ",
"  ....@@################&&@@    ",
"    ..@@##############&&&&@@    ",
"    ..@@##############&&&&@@    ",
"      ..@@@@&&&&&&&&&&@@@@      ",
"      ..@@@@&&&&&&&&&&@@@@      ",
"      ....++@@@@@@@@@@....++    ",
"      ....++@@@@@@@@@@....++    ",
"      ..++              ..++    ",
"      ..++              ..++    "};
