/* XPM */
static char * C:\Users\Romil\sprite2\wall2_xpm[] = {
"32 32 2 1",
" 	c #19142B",
".	c #ADB4BF",
"                                ",
"                                ",
"                                ",
"                                ",
"     ........                   ",
"     ........                   ",
"     ........                   ",
"     ........                   ",
"     ............               ",
"     ............               ",
"     ............               ",
"     ............               ",
"     ............               ",
"     ............               ",
"     ............               ",
"     ............               ",
"                     ........   ",
"                     ........   ",
"                     ........   ",
"                     ........   ",
"                 ............   ",
"                 ............   ",
"                 ............   ",
"                 ............   ",
"         ....                   ",
"         ....                   ",
"         ....                   ",
"         ....                   ",
"                                ",
"                                ",
"                                ",
"                                "};
