/* XPM */
static char * wall_upr_xpm[] = {
"32 32 2 1",
" 	c #FFFFFF",
".	c #1A1E21",
"    ....            ....        ",
"    ....            ....        ",
"    ....            ....        ",
"    ....            ....        ",
"............................    ",
"............................    ",
"............................    ",
"............................    ",
"    ....                ........",
"    ....                ........",
"    ....                ........",
"    ....                ........",
"    ....                ....    ",
"    ....                ....    ",
"    ....                ....    ",
"    ....                ....    ",
"....................    ....    ",
"....................    ....    ",
"....................    ....    ",
"....................    ....    ",
"....        ....        ........",
"....        ....        ........",
"....        ....        ........",
"....        ....        ........",
"....        ................    ",
"....        ................    ",
"....        ................    ",
"....        ................    ",
"................        ....    ",
"................        ....    ",
"................        ....    ",
"................        ....    "};
