/* XPM */
static char * win_xpm[] = {
"290 67 6 1",
" 	c #19142B",
".	c #000000",
"+	c #D53F30",
"@	c #E9BB4B",
"#	c #FFFFFF",
"$	c #050505",
"                                        ..................................................................................................................................................................................................................                                        ",
"                                        ..................................................................................................................................................................................................................                                        ",
"                                        ..................................................................................................................................................................................................................                                        ",
"                                     ...++++++++++++++++++++++++++++++++++++++++++++++++++++++++++++++++++++++++++++++++++++++++++++++++++++++++++++++++++++++++++++++++++++++++++++++++++++++++++++++++++++++++++++++++++++++++++++++++++++++++++++++++++...                                     ",
"                                     ...++++++++++++++++++++++++++++++++++++++++++++++++++++++++++++++++++++++++++++++++++++++++++++++++++++++++++++++++++++++++++++++++++++++++++++++++++++++++++++++++++++++++++++++++++++++++++++++++++++++++++++++++++...                                     ",
"                                     ...++++++++++++++++++++++++++++++++++++++++++++++++++++++++++++++++++++++++++++++++++++++++++++++++++++++++++++++++++++++++++++++++++++++++++++++++++++++++++++++++++++++++++++++++++++++++++++++++++++++++++++++++++...                                     ",
"                                     ...++++++++++++++++++++++++++++++++++++++++++++++++++++++++++++++++++++++++++++++++++++++++++++++++++++++++++++++++++++++++++++++++++++++++++++++++++++++++++++++++++++++++++++++++++++++++++++++++++++++++++++++++++...                                     ",
"                                     ...++++++++++++++++++++++++++++++++++++++++++++++++++++++++++++++++++++++++++++++++++++++++++++++++++++++++++++++++++++++++++++++++++++++++++++++++++++++++++++++++++++++++++++++++++++++++++++++++++++++++++++++++++...                                     ",
"                                     ...++++++++++++++++++++++++++++++++++++++++++++++++++++++++++++++++++++++++++++++++++++++++++++++++++++++++++++++++++++++++++++++++++++++++++++++++++++++++++++++++++++++++++++++++++++++++++++++++++++++++++++++++++...                                     ",
"                                     ...++++++++++++++++++++++++++++++++++++++++++++++++++++++++++++++++++++++++++++++++++++++++++++++++++++++++++++++++++++++++++++++++++++++++++++++++++++++++++++++++++++++++++++++++++++++++++++++++++++++++++++++++++...                                     ",
"                                     ...++++++++++++++++++++++++++++++++++++++++++++++++++++++++++++++++++++++++++++++++++++++++++++++++++++++++++++++++++++++++++++++++++++++++++++++++++++++++++++++++++++++++++++++++++++++++++++++++++++++++++++++++++...                                     ",
"                                     ...++++++++++++++++++++++++++++++++++++++++++++++++++++++++++++++++++++++++++++++++++++++++++++++++++++++++++++++++++++++++++++++++++++++++++++++++++++++++++++++++++++++++++++++++++++++++++++++++++++++++++++++++++...                                     ",
"                                     ...++++++++++++++++++++++++++++++++++++++++++++++++++++++++++++++++++++++++++++++++++++++++++++++++++++++++++++++++++++++++++++++++++++++++++++++++++++++++++++++++++++++++++++++++++++++++++++++++++++++++++++++++++...                                     ",
"                                     ...++++++++++++++++++++++++++++++++++++++++++++++++++++++++++++++++++++++++++++++++++++++++++++++++++++++++++++++++++++++++++++++++++++++++++++++++++++++++++++++++++++++++++++++++++++++++++++++++++++++++++++++++++...                                     ",
"                                     ...++++++++++++++++++++++++++++++++++++++++++++++++++++++++++++++++++++++++++++++++++++++++++++++++++++++++++++++++++++++++++++++++++++++++++++++++++++++++++++++++++++++++++++++++++++++++++++++++++++++++++++++++++...                                     ",
"                                     ...+++++++++++++++@@@@@@+++++++@@@@@@@++++++++@@@@@@@@@@@@@@@@@++++++++@@@@@@@@+++++++@@@@@++++++++++++++++++++++++++++++@@@@@@@@+++++++++@@@@@++++++@@@@@@@@@++++++@@@@@@@@@++++++@@@@@+++++++@@@@@@@@++++++++++++++...                                     ",
"                                     ...+++++++++++++++@@@@@@+++++++@@@@@@@++++++++@@@@@@@@@@@@@@@@@++++++++@@@@@@@@+++++++@@@@@++++++++++++++++++++++++++++++@@@@@@@@+++++++++@@@@@++++++@@@@@@@@@++++++@@@@@@@@@++++++@@@@@+++++++@@@@@@@@++++++++++++++...                                     ",
"                                     ...+++++++++++++@@###@@@@@+++@@@@@@@@@@+++++####@@@@@@@@@@@@@@@@+++++@@###@@@@@@@+++@@@@@@@@@++++++++++++++++++++++++++@@###@@@@@@@+++++@@@@@@@@++++@####@@@@@@++++@####@@@@@@++++@@@@@@@@+++@@###@@@@@@@++++++++++++...                                     ",
"                                     ...+++++++++++++@@###@@@@@+++@@@@@@@@@@+++++####@@@@@@@@@@@@@@@@+++++@@###@@@@@@@+++@@@@@@@@@++++++++++++++++++++++++++@@###@@@@@@@+++++@@@@@@@@++++@####@@@@@@++++@####@@@@@@++++@@@@@@@@+++@@###@@@@@@@++++++++++++...                                     ",
"                                     ...+++++++++++++@@#@@@@@@@@@@@@@@@@@@@@++++@##@@@@@@@@@@@@@@@@@@@@+++@@##@@@@@@@@+++@@@@@@@@@++++++++++++++++++++++++++@@##@@@@@@@@+++++@@@@@@@@++++@##@@@@@@@@++++@##@@@@@@@@++++@@@@@@@@+++@@##@@@@@@@@++++++++++++...                                     ",
"                                     ...+++++++++++++@@@@@@@@@@@@@@@@@@@@@@@++++@@@@@@@@@@@+++++@@@@@@@+++@@@@@@@@@@@@+++@@@@@@@@@++++++++++++++++++++++++++@@@@@@@@@@@@+++++@@@@@@@@++++@@@@@@@@@@@++++@@@@@@@@@@@++++@@@@@@@@+++@@@@@@@@@@@@++++++++++++...                                     ",
"                                     ...+++++++++++++@@@@@@@@@@@@@@@@@@@@@@@++++@@@@@@@@@@@+++++@@@@@@@+++@@@@@@@@@@@@+++@@@@@@@@@++++++++++++++++++++++++++@@@@@@@@@@@@+++++@@@@@@@@++++@@@@@@@@@@@++++@@@@@@@@@@@++++@@@@@@@@+++@@@@@@@@@@@@++++++++++++...                                     ",
"                                     ...+++++++++++++++@@@@@@@@@@@@@@@@@@@@+++++@@@@@@@@@@@+++++@@@@@@@+++@@@@@@@@@@@@+++@@@@@@@@@++++++++++++++++++++++++++@@@@@@@@@@@@+++++@@@@@@@@++++@@@@@@@@@@@++++@@@@@@@@@@@++++@@@@@@@@+++@@@@@@@@@@@@++++++++++++...                                     ",
"........................................+++++++++++++++@@@@@@@@@@@@@@@@@@@@+++++@@@@@@@@@@@+++++@@@@@@@+++@@@@@@@@@@@@+++@@@@@@@@@++++++++++++++++++++++++++@@@@@@@@@@@@+++++@@@@@@@@++++@@@@@@@@@@@++++@@@@@@@@@@@++++@@@@@@@@+++@@@@@@@@@@@@++++++++++++........................................",
"........................................++++++++++++++++@@@@@@@@@@@@@@@@@+++++++@@@@@@@@@@@+++++@@@@@@@+++@@@@@@@@@@@@+++@@@@@@@@@++++++++++++++++++++++++++@@@@@@@@@@@@+++++@@@@@@@@++++@@@@@@@@@@@++++@@@@@@@@@@@@@++@@@@@@@@+++@@@@@@@@@@@@++++++++++++........................................",
"........................................++++++++++++++++++@@@@@@@@@@@@@+++++++++@@@@@@@@@@@+++++@@@@@@@+++@@@@@@@@@@@@+++@@@@@@@@@++++++++++++++++++++++++++@@@@@@@@@@@@++@++@@@@@@@@++++@@@@@@@@@@@++++@@@@@@@@@@@@@@@@@@@@@@@+++++@@@@@@@@++++++++++++++........................................",
"........................................++++++++++++++++++@@@@@@@@@@@@@+++++++++@@@@@@@@@@@+++++@@@@@@@+++@@@@@@@@@@@@+++@@@@@@@@@++++++++++++++++++++++++++@@@@@@@@@@@@++@++@@@@@@@@++++@@@@@@@@@@@++++@@@@@@@@@@@@@@@@@@@@@@@+++++@@@@@@@@++++++++++++++........................................",
"   ....++++++++++++++++++++++++++++++...++++++++++++++++++++@@@@@@@@@@++++++++++@@@@@@@@@@@+++++@@@@@@@+++@@@@@@@@@@@@+++@@@@@@@@@++++++++++++++++++++++++++@@@@@@@@@@@@@@@@@@@@@@@@@++++@@@@@@@@@@@++++@@@@@@@@@@@@@@@@@@@@@@@+++++@@@@@@@@++++++++++++++...++++++++++++++++++++++++++++++....   ",
"   ....++++++++++++++++++++++++++++++...++++++++++++++++++++@@@@@@@@@@++++++++++@@@@@@@@@@@+++++@@@@@@@+++@@@@@@@@@@@@+++@@@@@@@@@++++++++++++++++++++++++++@@@@@@@@@@@@@@@@@@@@@@@@@++++@@@@@@@@@@@++++@@@@@@@@@@@@@@@@@@@@@@@+++++@@@@@@@@++++++++++++++...++++++++++++++++++++++++++++++....   ",
"   ....++++++++++++++++++++++++++++++...++++++++++++++++++++@@@@@@@@@@++++++++++@@@@@@@@@@@+++++@@@@@@@+++@@@@@@@@@@@@+++@@@@@@@@@++++++++++++++++++++++++++@@@@@@@@@@@@@@@@@@@@@@@@@++++@@@@@@@@@@@++++@@@@@@@@@@@@@@@@@@@@@@@+++++++@@@@@+++++++++++++++...++++++++++++++++++++++++++++++....   ",
"       ...+++++++++++++++++++++++++++...++++++++++++++++++++@@@@@@@@@@++++++++++@@@@@@@@@@@+++++@@@@@@@+++@@@@@@@@@@@@+++@@@@@@@@@++++++++++++++++++++++++++@@@@@@@@@@@@@@@@@@@@@@@@@++++@@@@@@@@@@@++++@@@@@@@@@@@@@@@@@@@@@@@+++++++++++++++++++++++++++...+++++++++++++++++++++++++++$$$       ",
"       ...+++++++++++++++++++++++++++...++++++++++++++++++++@@@@@@@@@@++++++++++@@@@@@@@@@@+++++@@@@@@@+++@@@@@@@@@@@@+++@@@@@@@@@++++++++++++++++++++++++++@@@@@@@@@@@@@@@@@@@@@@@@@++++@@@@@@@@@@@++++@@@@@@@@@@@@@@@@@@@@@@@+++++++++++++++++++++++++++...+++++++++++++++++++++++++++$$$       ",
"       ...+++++++++++++++++++++++++++...++++++++++++++++++++@@@@@@@@@@++++++++++@@@@@@@@@@@+++++@@@@@@@+++@@@@@@@@@@@@+++@@@@@@@@@++++++++++++++++++++++++++@@@@@@@@@@@@@@@@@@@@@@@@@++++@@@@@@@@@@@++++@@@@@@@@@@@++@@@@@@@@@@+++++++@@@@@+++++++++++++++...+++++++++++++++++++++++++++$$$       ",
"          ...++++++++++++++++++++++++...++++++++++++++++++++@@@@@@@@@@++++++++++@@@@@@@@@@@+++++@@@@@@@+++@@@@@@@@@@@@+++@@@@@@@@@++++++++++++++++++++++++++@@@@@@@@@@@@@@@@@@@@@@@@@++++@@@@@@@@@@@++++@@@@@@@@@@@++@@@@@@@@@@+++++++@@@@@+++++++++++++++...++++++++++++++++++++++++$$$          ",
"          ...++++++++++++++++++++++++...++++++++++++++++++++@@@@@@@@@@++++++++++@@@@@@@@@@@@@@@@@@@@@@@+++@@@@@@@@@@@@@@@@@@@@@@@@++++++++++++++++++++++++++@@@@@@@@@@@@@@@@@@@@@@@@@++++@@@@@@@@@@@++++@@@@@@@@@@@++++@@@@@@@@+++++@@@@@@@@++++++++++++++...++++++++++++++++++++++++$$$          ",
"          ...++++++++++++++++++++++++...++++++++++++++++++++@@@@@@@@@@++++++++++@@@@@@@@@@@@@@@@@@@@@@@+++@@@@@@@@@@@@@@@@@@@@@@@@++++++++++++++++++++++++++@@@@@@@@@@@@@@@@@@@@@@@@@++++@@@@@@@@@@@++++@@@@@@@@@@@++++@@@@@@@@+++++@@@@@@@@++++++++++++++...++++++++++++++++++++++++$$$          ",
"          ...++++++++++++++++++++++++...++++++++++++++++++++@@@@@@@@@@++++++++++@@@@@@@@@@@@@@@@@@@@@@@+++@@@@@@@@@@@@@@@@@@@@@@@@++++++++++++++++++++++++++@@@@@@@@@@@@@@+@@@@@@@@@@++++@@@@@@@@@@@++++@@@@@@@@@@@++++@@@@@@@@+++++@@@@@@@@++++++++++++++...++++++++++++++++++++++++$$$          ",
"             ....++++++++++++++++++++...++++++++++++++++++++@@@@@@@@@@+++++++++++@@@@@@@@@@@@@@@@@@@@+++++++@@@@@@@@@@@@@@@@@@@@++++++++++++++++++++++++++++@@@@@@@@@@@@+++++@@@@@@@@++++@@@@@@@@@@@++++@@@@@@@@@@@++++@@@@@@@@+++++@@@@@@@@++++++++++++++...++++++++++++++++++++$$$$             ",
"             ....++++++++++++++++++++...++++++++++++++++++++@@@@@@@@@@+++++++++++@@@@@@@@@@@@@@@@@@@@+++++++@@@@@@@@@@@@@@@@@@@@++++++++++++++++++++++++++++@@@@@@@@@@@@+++++@@@@@@@@++++@@@@@@@@@@@++++@@@@@@@@@@@++++@@@@@@@@+++++@@@@@@@@++++++++++++++...++++++++++++++++++++$$$$             ",
"             ....++++++++++++++++++++...+++++++++++++++++++++@@@@@@@+++++++++++++++@@@@@@@@@@@@@@@@@++++++++++@@@@@@@@@@@@@@@@++++++++++++++++++++++++++++++++@@@@@@@@+++++++++@@@@@++++++@@@@@@@@@++++++@@@@@@@@@++++++@@@@@+++++++++@@@@@+++++++++++++++...++++++++++++++++++++$$$$             ",
"                 ...+++++++++++++++++...+++++++++++++++++++++@@@@@@@+++++++++++++++@@@@@@@@@@@@@@@@@++++++++++@@@@@@@@@@@@@@@@++++++++++++++++++++++++++++++++@@@@@@@@+++++++++@@@@@++++++@@@@@@@@@++++++@@@@@@@@@++++++@@@@@+++++++++@@@@@+++++++++++++++...+++++++++++++++++$$$                 ",
"                 ...+++++++++++++++++...++++++++++++++++++++++++++++++++++++++++++++++++++++++++++++++++++++++++++++++++++++++++++++++++++++++++++++++++++++++++++++++++++++++++++++++++++++++++++++++++++++++++++++++++++++++++++++++++++++++++++++++++++...+++++++++++++++++$$$                 ",
"                 ...+++++++++++++++++...++++++++++++++++++++++++++++++++++++++++++++++++++++++++++++++++++++++++++++++++++++++++++++++++++++++++++++++++++++++++++++++++++++++++++++++++++++++++++++++++++++++++++++++++++++++++++++++++++++++++++++++++++...+++++++++++++++++$$$                 ",
"                 ...+++++++++++++++++...++++++++++++++++++++++++++++++++++++++++++++++++++++++++++++++++++++++++++++++++++++++++++++++++++++++++++++++++++++++++++++++++++++++++++++++++++++++++++++++++++++++++++++++++++++++++++++++++++++++++++++++++++...+++++++++++++++++$$$                 ",
"                    ...++++++++++++++...++++++++++++++++++++++++++++++++++++++++++++++++++++++++++++++++++++++++++++++++++++++++++++++++++++++++++++++++++++++++++++++++++++++++++++++++++++++++++++++++++++++++++++++++++++++++++++++++++++++++++++++++++...++++++++++++++$$$                    ",
"                    ...++++++++++++++...++++++++++++++++++++++++++++++++++++++++++++++++++++++++++++++++++++++++++++++++++++++++++++++++++++++++++++++++++++++++++++++++++++++++++++++++++++++++++++++++++++++++++++++++++++++++++++++++++++++++++++++++++...++++++++++++++$$$                    ",
"                    ...++++++++++++++...++++++++++++++++++++++++++++++++++++++++++++++++++++++++++++++++++++++++++++++++++++++++++++++++++++++++++++++++++++++++++++++++++++++++++++++++++++++++++++++++++++++++++++++++++++++++++++++++++++++++++++++++++...++++++++++++++$$$                    ",
"                 ...++++++++++++++++++++..................................................................................................................................................................................................................++++++++++++++++++++$$$                 ",
"                 ...++++++++++++++++++++..................................................................................................................................................................................................................++++++++++++++++++++$$$                 ",
"                 ...++++++++++++++++++++..................................................................................................................................................................................................................++++++++++++++++++++$$$                 ",
"             ....+++++++++++++++++++++++++++++++++++++++++++$$$                                                                                                                                                                    $$$+++++++++++++++++++++++++++++++++++++++++++$$$$             ",
"             ....+++++++++++++++++++++++++++++++++++++++++++$$$                                                                                                                                                                    $$$+++++++++++++++++++++++++++++++++++++++++++$$$$             ",
"             ....+++++++++++++++++++++++++++++++++++++++++++$$$                                                                                                                                                                    $$$+++++++++++++++++++++++++++++++++++++++++++$$$$             ",
"             ....+++++++++++++++++++++++++++++++++++++++++++$$$                                                                                                                                                                    $$$+++++++++++++++++++++++++++++++++++++++++++$$$$             ",
"          ...+++++++++++++++++++++++++++++++++++++++++++++++$$$                                                                                                                                                                    $$$+++++++++++++++++++++++++++++++++++++++++++++++$$$          ",
"          ...+++++++++++++++++++++++++++++++++++++++++++++++$$$                                                                                                                                                                    $$$+++++++++++++++++++++++++++++++++++++++++++++++$$$          ",
"          ...+++++++++++++++++++++++++++++++++++++++++++++++$$$                                                                                                                                                                    $$$+++++++++++++++++++++++++++++++++++++++++++++++$$$          ",
"       ...++++++++++++++++++++++++++++++++++++++++++++++++++$$$                                                                                                                                                                    $$$++++++++++++++++++++++++++++++++++++++++++++++++++$$$       ",
"       ...++++++++++++++++++++++++++++++++++++++++++++++++++$$$                                                                                                                                                                    $$$++++++++++++++++++++++++++++++++++++++++++++++++++$$$       ",
"       ...++++++++++++++++++++++++++++++++++++++++++++++++++$$$                                                                                                                                                                    $$$++++++++++++++++++++++++++++++++++++++++++++++++++$$$       ",
"   ....+++++++++++++++++++++++++++++++++++++++++++++++++++++$$$                                                                                                                                                                    $$$+++++++++++++++++++++++++++++++++++++++++++++++++++++$$$$   ",
"   ....+++++++++++++++++++++++++++++++++++++++++++++++++++++$$$                                                                                                                                                                    $$$+++++++++++++++++++++++++++++++++++++++++++++++++++++$$$$   ",
"   ....+++++++++++++++++++++++++++++++++++++++++++++++++++++$$$                                                                                                                                                                    $$$+++++++++++++++++++++++++++++++++++++++++++++++++++++$$$$   ",
"   ....+++++++++++++++++++++++++++++++++++++++++++++++++++++$$$                                                                                                                                                                    $$$+++++++++++++++++++++++++++++++++++++++++++++++++++++$$$$   ",
".............$$$$$$$$$$$$$$$$$$$$$$$$$$$$$$$$$$$$$$$$$$$$$$$                                                                                                                                                                          $$$$$$$$$$$$$$$$$$$$$$$$$$$$$$$$$$$$$$$$$$$$$$$$$$$$$$$$$$$$",
".............$$$$$$$$$$$$$$$$$$$$$$$$$$$$$$$$$$$$$$$$$$$$$$$                                                                                                                                                                          $$$$$$$$$$$$$$$$$$$$$$$$$$$$$$$$$$$$$$$$$$$$$$$$$$$$$$$$$$$$",
".............$$$$$$$$$$$$$$$$$$$$$$$$$$$$$$$$$$$$$$$$$$$$$$$                                                                                                                                                                          $$$$$$$$$$$$$$$$$$$$$$$$$$$$$$$$$$$$$$$$$$$$$$$$$$$$$$$$$$$$"};
