/* XPM */
static char * eleft1_xpm[] = {
"32 32 2 1",
" 	c #1A1E21",
".	c #FFFFFF",
"      ....................      ",
"      ....................      ",
"      ....................      ",
"      ....................      ",
"      ....    ....    ....      ",
"      ....    ....    ....      ",
"      ....    ....    ....      ",
"      ....    ....    ....      ",
"      ....................      ",
"      ....................      ",
"      ....................      ",
"      ....................      ",
"          ............          ",
"          ............          ",
"          ............          ",
"          ............          ",
"  ....                    ....  ",
"  ....                    ....  ",
"  ....                    ....  ",
"  ....                    ....  ",
"  ....        ....        ....  ",
"  ....        ....        ....  ",
"  ....        ....        ....  ",
"  ....        ....        ....  ",
"          ............          ",
"          ............          ",
"          ............          ",
"          ............          ",
"          ....    ....          ",
"          ....    ....          ",
"          ....    ....          ",
"          ....    ....          "};
