/* XPM */
static char *result[] = {
/* columns rows colors chars-per-pixel */
"16 16 6 1 ",
"  c black",
". c #3A4466",
"X c #C0CBDC",
"o c white",
"O c #5A6988",
"+ c #8B9BB4",
/* pixels */
"+++OX+++++++OX++",
"+++O..++++..OX++",
"++O.++.OO.++.O++",
"OO  O.    O.  OO",
"+O  O.    O.  ++",
"+O  O+++++O.  ++",
"++  O.....O.  ++",
"++  O.    O.  ++",
"++  .OOOOO..  ++",
"++  ........  ++",
"OO  ..    ..  OO",
"+O  ........  ++",
"++  . . . .   ++",
"+++OOOOOOOOOX+++",
"+++OOX+++++OOX++",
"+++OX+++++++OX++"
};
