/* XPM */
static char *result[] = {
/* columns rows colors chars-per-pixel */
"16 16 4 1 ",
"  c #8B9BB4",
". c #5A6988",
"X c #C0CBDC",
"o c white",
/* pixels */
"   .X       .X  ",
"   ..       .X  ",
"  ........  ..  ",
"..XX    ........",
" .X      ..X    ",
" .       .X     ",
"  ...    .X     ",
"  .XX.....X     ",
"  .X     .      ",
"  .X      .     ",
"...X      ......",
" ..       .X    ",
"  ..     ..X    ",
"   .........X   ",
"   ..X     ..X  ",
"   .X       .X  "
};
