/* XPM */
static char *_3b844e1fc834917b841c28175ae81894fKrzPkj2WvVXIIH[] = {
/* columns rows colors chars-per-pixel */
"16 16 6 1 ",
"  c black",
". c #3A4466",
"X c #C0CBDC",
"o c white",
"O c #5A6988",
"+ c #8B9BB4",
/* pixels */
"................",
"XoXXXXXoXXXXXXX.",
"XoXXXXXoXXXXXXX.",
"ooooooooooooooo.",
"XXXXoXXXXXoXXXX.",
"XXXXoXXXXXoXXXX.",
"++++X+++++X++++.",
"++++X+++++X++++.",
"XXXXXXXXXXXXXXX.",
"X++++++X+++++++.",
"X++++++X+++++++.",
"XXXXXXXXXXXXXXX.",
"+++X++++++X++++.",
"+++X++++++X++++.",
"................",
"+++OX+++++++OX++"
};
