/* XPM */
static char *_3fcfa0220514e6eecef6bc82aa7379ctIL6xOPM9LIr4WKZ[] = {
/* columns rows colors chars-per-pixel */
"16 16 6 1 ",
"  c black",
". c #3A4466",
"X c #C0CBDC",
"o c white",
"O c #5A6988",
"+ c #8B9BB4",
/* pixels */
"................",
"XXoXXXXXXoXXXXXX",
"XXoXXXXXXoXXXXXX",
"oooooooooooooooo",
"XXXXXoXXXXXXoXXX",
"XXXXXoXXXXXXoXXX",
"+++++X++++++X+++",
"+++++X++++++X+++",
"XXXXXXXXXXXXXXXX",
"+X+++++++X++++++",
"+X+++++++X++++++",
"XXXXXXXXXXXXXXXX",
"++++++X++++++X++",
"++++++X++++++X++",
"................",
"+++OX+++++++OX++"
};
