/* XPM */
static char *_f76847439254460aa2e59eae84203b9M6xtDLfXTUNUAboN[] = {
/* columns rows colors chars-per-pixel */
"16 16 6 1 ",
"  c black",
". c #3A4466",
"X c #C0CBDC",
"o c white",
"O c #5A6988",
"+ c #8B9BB4",
/* pixels */
"+++.XXXoXXX.OX++",
"+++.XXXoooo.OX++",
"++O.XXXoXXX.OO++",
"OOX.XXXoXXX.OOOO",
"+OX.ooooXXX.++++",
"+O+.XXXoXXX.++++",
"++O.XXXoooo.++++",
"++O.XXXoXXX.++++",
"++O.XXXoXXX.++++",
"++O.ooooXXX.++++",
"OOO.XXXoXXX.OOOO",
"+OO.XXXoooo.++++",
"++O.XXXoXXX.++++",
"+++.XXXoXXX.X+++",
"+++.ooooXXX.OX++",
"+++.XXXoXXX.OX++"
};
