/* XPM */
static char *_f3b378069784105c11f63841d114a2doXWWo9fLj6KPdH7S[] = {
/* columns rows colors chars-per-pixel */
"16 16 8 1 ",
"  c #181425",
". c #262B44",
"X c #B86F50",
"o c #5A6988",
"O c #8B9BB4",
"+ c #E8B796",
"@ c #EAD4AA",
"# c #C0CBDC",
/* pixels */
"OOOo#O.....Oo#OO",
"OOOoo.+++@@.o#OO",
"OOoo.+.   .+.oOO",
"oo##.+     +.ooo",
"Oo#O.++...+X.OOO",
"OoO.XX@@++++X.OO",
"OOo.++++++++X.OO",
"OO.++@@@@++++X.O",
"OO.+@@@@@@+++X.O",
"OO.+@@@@@@+++X.O",
"oo.++@@@@++++X.o",
"Ooo.++++++++X.OO",
"OOo.+++++++XX.OO",
"OOOo..XXXXX..OOO",
"OOOoo#.....oo#OO",
"OOOo#OOOOOOOo#OO"
};
