/* XPM */
static char * C:\Users\Romil\Desktop\Cool Sprites\32x32\collec_xpm[] = {
"32 32 8 1",
" 	c #8B9BB4",
".	c #5A6988",
"+	c #C0CBDC",
"@	c #000000",
"#	c #663931",
"$	c #D18C47",
"%	c #D9A066",
"&	c #DDD540",
"      ..++              ..++    ",
"      ..++              ..++    ",
"      ....              ..++    ",
"      ....              ..++    ",
"    ................    ....    ",
"    ................    ....    ",
"....++++        ................",
"....++++        ................",
"  ..++            ....++        ",
"  ..++            ....++        ",
"  ..              ..++          ",
"  ..              ..++          ",
"    ......    @@@@@@++          ",
"    ......    @@@@@@++          ",
"    ..++++..@@##$$%%@@          ",
"    ..++++..@@##$$%%@@          ",
"    ..++  @@$$$$##@@            ",
"    ..++  @@$$$$##@@            ",
"    ..@@@@&&@@%%%%%%@@@@        ",
"    ..@@@@&&@@%%%%%%@@@@        ",
"....@@&&@@@@$$%%%%$$@@&&@@......",
"....@@&&@@@@$$%%%%$$@@&&@@......",
"  @@&&@@&&@@@@$$$$&&@@@@        ",
"  @@&&@@&&@@@@$$$$&&@@@@        ",
"    @@@@@@@@@@@@@@@@..++        ",
"    @@@@@@@@@@@@@@@@..++        ",
"      ..................++      ",
"      ..................++      ",
"      ....++          ....++    ",
"      ....++          ....++    ",
"      ..++              ..++    ",
"      ..++              ..++    "};
