/* XPM */
static char *result[] = {
/* columns rows colors chars-per-pixel */
"16 16 8 1 ",
"  c black",
". c #663931",
"X c #D18C47",
"o c #D9A066",
"O c #DDD540",
"+ c #5A6988",
"@ c #8B9BB4",
"# c #C0CBDC",
/* pixels */
"@@@+#@@@@@@@+#@@",
"@@@++@@@@@@@+#@@",
"@@++++++++@@++@@",
"++##@@@@++++++++",
"@+#@@@@@@++#@@@@",
"@+@@@@@@@+#@@@@@",
"@@+++@@   #@@@@@",
"@@+##+ .Xo @@@@@",
"@@+#@ XX. @@@@@@",
"@@+  O ooo  @@@@",
"++ O  XooX O +++",
"@ O O  XXO  @@@@",
"@@        +#@@@@",
"@@@+++++++++#@@@",
"@@@++#@@@@@++#@@",
"@@@+#@@@@@@@+#@@"
};
