/* XPM */
static char *_febd6ad580846dcd948e40eec60378d39u2L6WR5YTRKJgm[] = {
/* columns rows colors chars-per-pixel */
"16 16 9 1 ",
"  c black",
". c #663931",
"X c #59413E",
"o c #514047",
"O c #77514C",
"+ c #8D5D57",
"@ c #D18C47",
"# c #D9A066",
"$ c #DDD540",
/* pixels */
"oOOOOOoooOOOOOoo",
"OOOOOO+oOOOOOO+o",
"OOOOOO+oOOOOOO+o",
"OOOOOO+oOOOOOO+o",
"OOOOOO+oOOOOOO+o",
"OOOOO++oOOOOO++o",
"X+++++X   ++++Xo",
"oXXXXX .@# XXXoo",
"oOOOO @@. OOOOoo",
"OOO  $ ###  OO+o",
"OO $  @##@ $ O+o",
"O $ $  @@$  OO+o",
"OO        OOOO+o",
"OOOOO++oOOOOO++o",
"X+++++XoX+++++Xo",
"oXXXXXoooXXXXXoo"
};
