/* XPM */
static char * C:\Users\Romil\Desktop\Cool Sprites\32x32\floor_xpm[] = {
"32 32 3 1",
" 	c #8B9BB4",
".	c #5A6988",
"+	c #C0CBDC",
"      ..++              ..++    ",
"      ..++              ..++    ",
"      ....              ..++    ",
"      ....              ..++    ",
"    ................    ....    ",
"    ................    ....    ",
"....++++        ................",
"....++++        ................",
"  ..++            ....++        ",
"  ..++            ....++        ",
"  ..              ..++          ",
"  ..              ..++          ",
"    ......        ..++          ",
"    ......        ..++          ",
"    ..++++..........++          ",
"    ..++++..........++          ",
"    ..++          ..            ",
"    ..++          ..            ",
"    ..++            ..          ",
"    ..++            ..          ",
"......++            ............",
"......++            ............",
"  ....              ..++        ",
"  ....              ..++        ",
"    ....          ....++        ",
"    ....          ....++        ",
"      ..................++      ",
"      ..................++      ",
"      ....++          ....++    ",
"      ....++          ....++    ",
"      ..++              ..++    ",
"      ..++              ..++    "};
