/* XPM */
static char * C:\Users\Romil\Desktop\Cool Sprites\32x32\player_xpm[] = {
"32 32 10 1",
" 	c #8B9BB4",
".	c #5A6988",
"+	c #C0CBDC",
"@	c #1F1833",
"#	c #5956BD",
"$	c #5698CC",
"%	c #D3BFA9",
"&	c #FDF7ED",
"*	c #8A503E",
"=	c #B58057",
"      ..++              ..++    ",
"      ..++              ..++    ",
"      .@@@              ..++    ",
"      .@@@              ..++    ",
"    ...@@#@@........    ....    ",
"    ...@@###@@@@@@..    ....    ",
"....+++@@###@@@@@@..............",
"....++++ @######$$@@@...........",
"  ..++ @@####$$$$$$$$@++        ",
"  ..++ @@####$$$$$$$$@++        ",
"  ..     @##$$$$$$####@@        ",
"  ..   @@####$$$$$$$$$$$@       ",
"    ...@@####$$$$$$$$$$$@       ",
"    ..@@@@@@@@@@@@@@@@@@@@@     ",
"    ..+@@%&&*&&&=====&&&@       ",
"    ..+@@%&&*&&&=====&&&@       ",
"    ..+@@%&&*@@@=====@@@        ",
"    ..+@@%&&*@@@=====@@@        ",
"    ..+@@%&&*@@@=====@@@        ",
"    ..+@@%&&&***=====*&&@       ",
"......+@@%&&&&&&&&&&&&&&@.......",
"......+@@%&&&&&&&&&&&&&&@.......",
"  ....   @##%&&&&&&&&&&&@       ",
"  ....   @$$$%%&&&&&&&@@        ",
"    .... @$$$%%&&&&&&&@@        ",
"    .... @$$$$$%&&&&&&@@        ",
"      ...@$$$$$$&&&&&&@@++      ",
"      ...@$$$$$$&&&&&&@@++      ",
"      .@@#######&&&&&%@@..++    ",
"      .@@@@@@@@@%%&&&@@@..++    ",
"      .@@@@@@@@@%%&&&@@@..++    ",
"      ..++              ..++    "};
