/* XPM */
static char * C:\Users\Romil\Desktop\Cool Sprites\32x32\wall_upright_xpm[] = {
"32 32 5 1",
" 	c #3A4466",
".	c #5A6988",
"+	c #C0CBDC",
"@	c #8B9BB4",
"#	c #FFFFFF",
"                        ..++@@@@",
"                        ..++@@@@",
"++##++++++++++##++++++  ..++@@@@",
"++##++++++++++##++++++  ..++@@@@",
"++##++++++++++##++++++  ....@@@@",
"++##++++++++++##++++++  ....@@@@",
"################++++++  ........",
"################++++++  ........",
"++++++##++++++##++++++  @@@@@@@@",
"++++++##++++++##++++++  @@@@@@@@",
"++++++##++++++##++++++  @@@@@@@@",
"++++++##++++++##++++++  @@@@@@@@",
"@@@@@@..++++++########  @@@@@@@@",
"@@@@@@..++++++########  @@@@@@@@",
"@@@@@@..++++++##++++++  @@@@@@@@",
"@@@@@@..++++++##++++++  @@@@@@@@",
"++++++..++++++##++++++  @@@@@@@@",
"++++++..++++++##++++++  @@@@@@@@",
"++@@@@..########++++++  @@@@@@@@",
"++@@@@..########++++++  @@@@@@@@",
"++@@@@..++++++##++++++  ........",
"++@@@@..++++++##++++++  ........",
"++++++..++++++##++++++  @@@@@@@@",
"++++++..++++++##++++++  @@@@@@@@",
"@@@@@@..++++++########  @@@@@@@@",
"@@@@@@..++++++########  @@@@@@@@",
"@@@@@@..++++++##++++++  ++@@@@@@",
"@@@@@@..++++++##++++++  ++@@@@@@",
"        ++++++##++++++  ..++@@@@",
"        ++++++##++++++  ..++@@@@",
"@@@@@@  ########++++++  ..++@@@@",
"@@@@@@  ########++++++  ..++@@@@"};
